<svg viewBox="0 0 1024 1024" xmlns="http://www.w3.org/2000/svg">
  <path fill="currentColor"
    d="M160 128h288a32 32 0 0 1 32 32v288a32 32 0 0 1 -32 32h-288a32 32 0 0 1 -32-32v-288a32 32 0 0 1 32-32zm32 64v224h224v-224h-224zm-32 352h288a32 32 0 0 1 32 32v288a32 32 0 0 1 -32 32h-288a32 32 0 0 1 -32-32v-288a32 32 0 0 1 32-32zm32 64v224h224v-224h-224zm384 -64h288a32 32 0 0 1 32 32v288a32 32 0 0 1 -32 32h-288a32 32 0 0 1 -32-32v-288a32 32 0 0 1 32-32zm32 64v224h224v-224h-224zm112 -128a176 176 0 0 1 0-352a176 176 0 0 1 0 352m0-64a112 112 0 0 0 0-224a112 112 0 0 0 0 224z" />
</svg>
