<svg viewBox="0 0 1024 1024" xmlns="http://www.w3.org/2000/svg">
  <path fill="currentColor"
    d="M320 160a32 32 0 0 1 64 0v32h256v-32a32 32 0 0 1 64 0v32h160a32 32 0 0 1 32 32v640a32 32 0 0 1 -32 32h-704a32 32 0 0 1-32-32v-640a32 32 0 0 1 32-32h160zm0 96h-128v128h640v-128h-128v32a32 32 0 0 1-64 0v-32h-256v32a32 32 0 0 1 -64 0zm-128 192v384h640v-384zm96 64h64a32 32 0 0 1 0 64h-64a32 32 0 0 1 0-64zm192 0h64a32 32 0 0 1 0 64h-64a32 32 0 0 1 0-64zm192 0h64a32 32 0 0 1 0 64h-64a32 32 0 0 1 0-64zm-384 192h64a32 32 0 0 1 0 64h-64a32 32 0 0 1 0-64zm192 0h64a32 32 0 0 1 0 64h-64a32 32 0 0 1 0-64zm192 0h64a32 32 0 0 1 0 64h-64a32 32 0 0 1 0-64z" />
</svg>
