<svg viewBox="0 0 1024 1024" xmlns="http://www.w3.org/2000/svg">
  <path fill="currentColor"
    d="M288 735.466v-64.195a176 176 0 1 1 32 -350.542a192 192 0 0 1 381.316 -32.71a192 192 0 0 1 32.682 381.296v64.768a256 256 0 0 0 15.035-505.634a256 256 0 0 0-487.779 31.126a240 240 0 0 0 24.744 475.982z" />
  <path fill="currentColor"
    d="M534.627 521.373a32 32 0 0 0 -45.255 0l-128 128a32 32 0 0 0 45.255 45.255l72.373-72.37v305.745a32 32 0 0 0 64 0v-305.745l72.373 72.37a32 32 0 0 0 45.255 -45.255z" />
</svg>
