<svg viewBox="0 0 1024 1024" xmlns="http://www.w3.org/2000/svg">
  <path fill="currentColor"
    d="M160 128h576a32 32 0 0 1 22.627 54.627l-214.627 214.627v407.746l-137.373 137.373a32 32 0 0 1 -54.627 -22.627v-522.492l-214.627-214.627a32 32 0 0 1 22.627-54.627zm77.255 64l178.745 178.745v480l64 -64v-416l178.745-178.745zM887.373 841.373a32 32 0 0 1-45.255 45.255l-96-96l-96 96a32 32 0 0 1 -45.255-45.255l96-96l-96-96a32 32 0 0 1 45.255-45.255l96 96l96-96a32 32 0 0 1 45.255 45.255l-96 96z" />
</svg>
