<svg viewBox="0 0 1024 1024" xmlns="http://www.w3.org/2000/svg">
  <path fill="currentColor"
    d="M384 160a32 32 0 0 1 32 -32h192a32 32 0 0 1 32 32v192a32 32 0 0 1-32 32h-192a32 32 0 0 1-32-32zm64 32v128h128v-128zM128 672a32 32 0 0 1 32 -32h192a32 32 0 0 1 32 32v192a32 32 0 0 1-32 32h-192a32 32 0 0 1-32-32zm64 32v128h128v-128zM640 672a32 32 0 0 1 32 -32h192a32 32 0 0 1 32 32v192a32 32 0 0 1-32 32h-192a32 32 0 0 1-32-32zm64 32v128h128v-128zM480 384v128h-224a32 32 0 0 0-32 32v96h64v-64h448v64h64v-96a32 32 0 0 0-32-32h-224v-128z" />
</svg>
