<svg viewBox="0 0 1024 1024" xmlns="http://www.w3.org/2000/svg">
  <path fill="currentColor"
    d="M444.118 353.608l158.392-158.392a160 160 0 0 1 226.274 226.274l-158.392 158.392l-45.255-45.255l158.392-158.392a96 96 0 0 0-135.765-135.765l-158.392 158.392zM579.882 670.392l-158.392 158.392a160 160 0 0 1 -226.274 -226.274l158.392 -158.392l45.255 45.255l-158.392 158.392a96 96 0 0 0 135.765 135.765l158.392-158.392zM613.832 364.922a32 32 0 0 1 45.255 45.255l-248.902 248.902a32 32 0 0 1-45.255-45.255z" />
</svg>
