<svg viewBox="0 0 1024 1024" xmlns="http://www.w3.org/2000/svg">
  <path fill="currentColor"
    d="M192 384a320 320 0 0 1 640 0c0 64 0 96-64 192l-229.148 343.772a32 32 0 0 1 -53.704 0l-229.148 -343.772c-64-96-64-128-64-192zm64 0c0 76.918 0 76.623 76.918 192l179.082 268.623l179.082 -268.623c76.918-115.377 76.918-115.082 76.918-192a256 256 0 0 0 -512 0M224 960a32 32 0 0 1 0-64h576a32 32 0 0 1 0 64z" />
  <path fill="currentColor"
    d="M352 352h128v-128a32 32 0 0 1 64 0v128h128a32 32 0 0 1 0 64h-128v128a32 32 0 0 1-64 0v-128h-128a32 32 0 0 1 0-64z" />
</svg>
