<svg viewBox="0 0 1024 1024" xmlns="http://www.w3.org/2000/svg">
  <path fill="currentColor"
    d="M128 160a32 32 0 0 1 32 -32h320a32 32 0 0 1 32 32v320a32 32 0 0 1-32 32h-320a32 32 0 0 1-32-32zm64 32v256h256v-256zM128 672a32 32 0 0 1 32 -32h192a32 32 0 0 1 32 32v192a32 32 0 0 1-32 32h-192a32 32 0 0 1-32-32zm64 32v128h128v-128zM640 672a32 32 0 0 1 32 -32h192a32 32 0 0 1 32 32v192a32 32 0 0 1-32 32h-192a32 32 0 0 1-32-32zm64 32v128h128v-128zM640 160a32 32 0 0 1 32 -32h192a32 32 0 0 1 32 32v192a32 32 0 0 1-32 32h-192a32 32 0 0 1-32-32zm64 32v128h128v-128zM480 544h64v64h-64zM480 672h64v224h-64zM672 480v64h224v-64zM256 256h128v128h-128z" />
</svg>
