<svg viewBox="0 0 1024 1024" xmlns="http://www.w3.org/2000/svg">
  <path fill="currentColor"
    d="M512 512m-29.174-429.148a32 32 0 0 1 58.348 0l108.196 240.074l261.758 28.714a32 32 0 0 1 18.031 55.492l-194.889 177.088l53.597 257.82a32 32 0 0 1 -47.205 34.296l-228.645-130.628l-228.645 130.628a32 32 0 0 1 -47.205 -34.296l53.597 -257.82l-194.889 -177.088a32 32 0 0 1 18.031 -55.492l261.758 -28.714zm29.174 91.03l-94.046 208.676l-227.524 24.958l169.401 153.927l-46.572 224.101l198.741-113.543l198.741 113.543l-46.572 -224.101l169.401 -153.927l-227.524 -24.958z" />
</svg>
