<svg viewBox="0 0 1024 1024" xmlns="http://www.w3.org/2000/svg">
  <path fill="currentColor"
    d="M125.334 715.647a32 32 0 0 0 0 45.255l135.765 135.765a32 32 0 0 0 45.255 0l322.564-322.564a224 224 0 0 0 218.87-354.634l-156.767 156.767l-45.255-45.255l156.767 -156.767a224 224 0 0 0 -354.634 218.87zm67.882 22.627l326.229 -326.229a160 160 0 0 1 171.547-216.862l-113.137 113.137a32 32 0 0 0 0 45.255l90.51 90.51a32 32 0 0 0 45.255 0l113.137-113.137a160 160 0 0 1 -216.862 171.547l-326.229 326.229z" />
</svg>
