<svg viewBox="0 0 1024 1024" xmlns="http://www.w3.org/2000/svg">
  <path fill="currentColor"
    d="M444.118 353.608l158.392-158.392a160 160 0 0 1 226.274 226.274l-158.392 158.392l-45.255-45.255l158.392-158.392a96 96 0 0 0-135.765-135.765l-158.392 158.392zM579.882 670.392l-158.392 158.392a160 160 0 0 1 -226.274 -226.274l158.392 -158.392l45.255 45.255l-158.392 158.392a96 96 0 0 0 135.765 135.765l158.392-158.392zM160 448a32 32 0 0 1 0-64h96a32 32 0 0 1 0 64zm41.373-201.377a32 32 0 0 1 45.255-45.255l67.882 67.882a32 32 0 0 1-45.255 45.255zm182.627-86.627a32 32 0 0 1 64 0v96a32 32 0 0 1 -64 0zM864 576a32 32 0 0 1 0 64h-96a32 32 0 0 1 0-64zm-41.373 201.377a32 32 0 0 1 -45.255 45.255l-67.882 -67.882a32 32 0 0 1 45.255-45.255zm-182.627 86.627a32 32 0 0 1 -64 0v-96a32 32 0 0 1 64 0z" />
</svg>
