<svg viewBox="0 0 1024 1024" xmlns="http://www.w3.org/2000/svg">
  <path fill="currentColor"
    d="M300.19 250.534c-157.972 92.347 -236.19 261.466 -236.19 261.466c0 0 148 320 448 320c110.962 0 201.13 -43.778 270.705 -98.95l-50.268 -50.268c-59.095 46.947 -133.829 85.218 -220.438 85.218c-224 0 -368.57 -256 -368.57 -256c0 0 77.639 -137.482 207.282 -210.944l-50.521 -50.522zm112.798 22.289l-51.987 -51.987c45.141 -17.871 95.466 -28.836 150.999 -28.836c320 0 448 320 448 320c0 0 -42.92 92.8 -129.384 178.451l-50.392 -50.391c64.18 -64.02 100.345 -128.06 100.345 -128.06c0 0 -144.57 -256 -368.57 -256c-35.029 0 -68.116 6.26 -99.011 16.823z" />
  <path fill="currentColor"
    d="M400.762 355.507a192 192 0 1 0 267.731 267.731l-46.23-46.23a128 128 0 1 1-175.271-175.271zm61.545 -28.965a192 192 0 0 1 235.151 235.151l-57.709-57.709a128 128 0 0 0-119.733-119.733z" />
  <path fill="currentColor"
    d="M195.216 240.471a32 32 0 0 1 45.255-45.255l588.313 588.313a32 32 0 0 1 -45.255 45.255z" />
</svg>
