<svg viewBox="0 0 1024 1024" xmlns="http://www.w3.org/2000/svg">
  <path fill="currentColor"
    d="M512 128a32 32 0 0 1 0-64a448 448 0 1 1 -448 448a32 32 0 0 1 64 0a384 384 0 1 0 384 -384z" />
  <path stroke="#ccc" fill="none"
    d="m64 0v1024m64 0v-1024m64 0v1024m64 0v-1024m64 0v1024m64 0v-1024m64 0v1024m64 0v-1024m64 0v1024m64 0v-1024m64 0v1024m64 0v-1024m64 0v1024m64 0v-1024m64 0v1024M0 64h1024m0 64h-1024m0 64h1024m0 64h-1024m0 64h1024m0 64h-1024m0 64h1024m0 64h-1024m0 64h1024m0 64h-1024m0 64h1024m0 64h-1024m0 64h1024m0 64h-1024m0 64h1024" />
  <path stroke="red" fill="none"
    d="M0 0v1024h1024v-1024zM512 64a448 448 0 0 1 0 896 448 448 0 0 1 0-896M64 192h896v640h-896zM192 64h640v896h-640zM128 128h768v768h-768zM0 0L1024 1024M1024 0L0 1024M512 320a192 192 0 0 1 0 384a192 192 0 0 1 0-384" />
  <text x="0" y="64" fill="red" style="font-size:36px">
    0
  </text>
  <text x="128" y="64" fill="red" style="font-size:36px">
    128
  </text>
  <text x="192" y="64" fill="red" style="font-size:36px">
    192
  </text>
  <text x="256" y="64" fill="red" style="font-size:36px">
    256
  </text>
  <text x="384" y="64" fill="red" style="font-size:36px">
    384
  </text>
  <text x="512" y="64" fill="red" style="font-size:36px">
    512
  </text>
  <text x="640" y="64" fill="red" style="font-size:36px">
    640
  </text>
  <text x="768" y="64" fill="red" style="font-size:36px">
    768
  </text>
  <text x="832" y="64" fill="red" style="font-size:36px">
    832
  </text>
  <text x="896" y="64" fill="red" style="font-size:36px">
    896
  </text>
  <text x="960" y="64" fill="red" style="font-size:36px">
    960
  </text>
  <text y="0" x="960" fill="red" style="font-size:36px">
    0
  </text>
  <text y="128" x="960" fill="red" style="font-size:36px">
    128
  </text>
  <text y="192" x="960" fill="red" style="font-size:36px">
    192
  </text>
  <text y="256" x="960" fill="red" style="font-size:36px">
    256
  </text>
  <text y="384" x="960" fill="red" style="font-size:36px">
    384
  </text>
  <text y="512" x="960" fill="red" style="font-size:36px">
    512
  </text>
  <text y="640" x="960" fill="red" style="font-size:36px">
    640
  </text>
  <text y="768" x="960" fill="red" style="font-size:36px">
    768
  </text>
  <text y="832" x="960" fill="red" style="font-size:36px">
    832
  </text>
  <text y="896" x="960" fill="red" style="font-size:36px">
    896
  </text>
  <text y="960" x="960" fill="red" style="font-size:36px">
    960
  </text>
</svg>
